<svg
  xmlns="http://www.w3.org/2000/svg"
  width="475"
  height="59"
  viewBox="0 0 475 59"
>
  <path
    d="M46,42.57 C44.8951901,42.5656225 43.8273777,42.9678318 43,43.7 C38.9,47.16 34.87,49.09 28.92,49.09 C18.14,49.09 10.34,40.16 10.34,29.09 L10.34,29 C10.34,18 18.22,9.13 28.92,9.13 C33.8747739,9.11571717 38.6657264,10.9034391 42.4,14.16 C43.8851753,15.2516589 45.8539023,15.4276999 47.5091968,14.6168577 C49.1644912,13.8060154 50.2321649,12.1426005 50.28,10.3 C50.2871453,8.75735906 49.5732333,7.29994277 48.35,6.36 C43.44,2.57 37.73,0 29,0 C12,0 2.84217094e-14,13.12 2.84217094e-14,29.13 L2.84217094e-14,29.29 C2.84217094e-14,45.46 12.23,58.29 28.64,58.29 C37.73,58.29 43.76,55.39 49.07,50.73 C50.0862047,49.8330477 50.6718265,48.5454072 50.68,47.19 C50.6312294,44.6355783 48.5548383,42.5858076 46,42.57 Z M82.86,24.62 C72,22 69.43,20.12 69.43,15.77 L69.43,15.61 C69.43,11.91 72.81,8.93 78.6,8.93 C83.03,8.93 87.21,10.38 91.6,13.19 C92.3709283,13.6691464 93.2623477,13.9188825 94.17,13.91 C95.4003469,13.9287274 96.586908,13.4537408 97.4644796,12.5912026 C98.3420512,11.7286643 98.8374675,10.5504868 98.84,9.32 C98.8782781,7.71188679 98.0495655,6.20721967 96.67,5.38 C91.3775777,1.84234893 85.1243581,0.0198025011 78.76,0.16 C67.58,0.16 59.53,6.84 59.53,16.5 L59.53,16.66 C59.53,27.04 66.29,30.58 78.27,33.48 C88.73,35.89 91,38.06 91,42.08 L91,42.24 C91,46.42 87.14,49.32 81,49.32 C75.22401,49.3157515 69.6364982,47.2642808 65.23,43.53 C63.7990619,42.5132946 61.9266239,42.3607261 60.3499691,43.1323694 C58.7733143,43.9040126 57.7450266,45.4762484 57.67,47.23 C57.6711414,48.725919 58.393424,50.1295301 59.61,51 C65.7012342,55.6091729 73.1314396,58.1022948 80.77,58.1000016 C92.6,58.1000016 100.88,51.82 100.88,41.28 L100.88,41.12 C100.88,31.78 94.77,27.52 82.86,24.62 L82.86,24.62 Z M132.74,24.62 C121.88,22.05 119.31,20.11 119.31,15.77 L119.31,15.61 C119.31,11.91 122.69,8.93 128.48,8.93 C132.9,8.93 137.09,10.38 141.48,13.19 C142.250928,13.6691464 143.142348,13.9188825 144.05,13.91 C145.280347,13.9287274 146.466908,13.4537408 147.34448,12.5912026 C148.222051,11.7286643 148.717468,10.5504868 148.72,9.32 C148.758278,7.71188679 147.929565,6.20721967 146.55,5.38 C141.257578,1.84234893 135.004358,0.0198025011 128.64,0.16 C117.46,0.16 109.41,6.84 109.41,16.49 L109.41,16.65 C109.41,27.03 116.17,30.57 128.15,33.47 C138.61,35.88 140.86,38.06 140.86,42.08 L140.86,42.24 C140.86,46.42 137,49.32 130.86,49.32 C125.08401,49.3157515 119.496498,47.2642808 115.09,43.53 C113.659062,42.5132946 111.786624,42.3607261 110.209969,43.1323694 C108.633314,43.9040126 107.605027,45.4762484 107.53,47.23 C107.535751,48.7295544 108.265852,50.1338827 109.49,51 C115.583758,55.6020298 123.013737,58.0880531 130.65,58.0800195 C142.48,58.0800195 150.76,51.8 150.76,41.26 L150.76,41.1 C150.76,31.78 144.65,27.52 132.74,24.62 L132.74,24.62 Z M178.36,27.84 L163.23,27.84 C160.584556,27.84 158.44,29.984556 158.44,32.63 C158.44,35.275444 160.584556,37.42 163.23,37.42 L178.35,37.42 C180.995444,37.42 183.14,35.275444 183.14,32.63 C183.14,29.984556 180.995444,27.84 178.35,27.84 L178.36,27.84 Z M224,1 L186.55,1 C184.10096,1.11440491 182.174184,3.13328887 182.174184,5.585 C182.174184,8.03671113 184.10096,10.0555951 186.55,10.17 L200.23,10.17 L200.23,52.79 C200.23,55.5514237 202.468576,57.79 205.23,57.79 C207.991424,57.79 210.23,55.5514237 210.23,52.79 L210.23,10.14 L224,10.14 C226.358842,9.9190747 228.161981,7.93916554 228.161981,5.57 C228.161981,3.20083446 226.358842,1.2209253 224,1 Z M262.86,1 L242.71,1 C241.376506,0.975324674 240.090349,1.49418131 239.147265,2.43726531 C238.204181,3.3803493 237.685325,4.6665061 237.71,6 L237.71,52.79 C237.828958,55.4346409 240.007685,57.5175702 242.655,57.5175702 C245.302315,57.5175702 247.481042,55.4346409 247.6,52.79 L247.6,37.66 L260.07,37.66 L273.75,55.12 C274.807836,56.75486 276.632978,57.7297805 278.58,57.7 C279.818614,57.7214 281.01498,57.2497921 281.905817,56.3889614 C282.796655,55.5281307 283.308963,54.3486198 283.33,53.11 C283.278104,51.6945114 282.704673,50.3481946 281.72,49.33 L270.94,35.73 C278.5,33.4 283.73,27.92 283.73,18.91 L283.73,18.75 C283.84957,14.2422448 282.173282,9.8716653 279.07,6.6 C275.45,3.06 269.9,1 262.82,1 L262.86,1 Z M273.72,19.51 C273.72,25.22 269.21,28.92 262.14,28.92 L247.61,28.92 L247.61,10 L262,10 C269.32,10 273.67,13.3 273.67,19.33 L273.72,19.51 Z M300.72,0.6 C299.400662,0.570301679 298.12533,1.07511462 297.183745,1.99975092 C296.242161,2.92438722 295.714268,4.19034042 295.719954,5.51 L295.719954,52.79 C295.838958,55.4346409 298.017685,57.5175702 300.665,57.5175702 C303.312315,57.5175702 305.491042,55.4346409 305.610099,52.79 L305.610099,5.47 C305.618373,4.15303471 305.094092,2.88859527 304.15627,1.9639558 C303.218449,1.03931633 301.946715,0.532985842 300.63,0.56 L300.72,0.6 Z M363.39,42.6 C362.28519,42.5956225 361.217378,42.9978318 360.39,43.73 C356.29,47.19 352.26,49.12 346.31,49.12 C335.53,49.12 327.73,40.19 327.73,29.12 L327.73,29 C327.73,18 335.61,9.13 346.31,9.13 C351.256181,9.1364892 356.031887,10.9380389 359.75,14.2 C361.235175,15.2916589 363.203902,15.4676999 364.859197,14.6568577 C366.514491,13.8460154 367.582165,12.1826005 367.63,10.34 C367.637145,8.79735906 366.923233,7.33994277 365.7,6.4 C360.72,2.57 355,1.0658141e-14 346.32,1.0658141e-14 C329.26,1.0658141e-14 317.32,13.12 317.32,29.13 L317.32,29.29 C317.32,45.46 329.55,58.29 345.96,58.29 C355.05,58.29 361.08,55.39 366.39,50.73 C367.416635,49.8238044 368.003268,48.5193642 368.000014,47.15 C367.929692,44.6035231 365.847443,42.5744382 363.3,42.57 L363.39,42.6 Z M404.39,25.78 L421.93,8.88 C423.042627,7.97263283 423.691763,6.61568353 423.7,5.18 C423.725669,3.93298475 423.236038,2.73056001 422.346541,1.85620297 C421.457043,0.981845921 420.246391,0.512928445 419,0.56 C417.423521,0.523100573 415.915463,1.20356577 414.9,2.41 L388.24,29.29 L388.24,5.47 C388.24,2.73619049 386.02381,0.52 383.29,0.52 C380.55619,0.52 378.34,2.73619049 378.34,5.47 L378.34,52.79 C378.34,55.5238095 380.55619,57.74 383.29,57.74 C386.02381,57.74 388.24,55.5238095 388.24,52.79 L388.24,41.12 L397.41,32.27 L415.51,55.36 C416.417056,56.7963159 417.991326,57.6738397 419.69,57.69 C421.000189,57.7361432 422.272851,57.2477138 423.21576,56.3368636 C424.158669,55.4260135 424.690812,54.1710015 424.690001,52.86 C424.680438,51.5523902 424.193193,50.2933797 423.32,49.32 L404.39,25.78 Z M456.19,24.65 C445.27,22 442.7,20.12 442.7,15.77 L442.7,15.61 C442.7,11.91 446.08,8.93 451.87,8.93 C456.29,8.93 460.48,10.38 464.87,13.19 C465.640928,13.6691464 466.532348,13.9188825 467.44,13.91 C468.670347,13.9287274 469.856908,13.4537408 470.73448,12.5912026 C471.612051,11.7286643 472.107468,10.5504868 472.11,9.32 C472.148278,7.71188679 471.319565,6.20721967 469.94,5.38 C464.639142,1.83641984 458.374529,0.0136058729 452,0.16 C440.85,0.16 432.8,6.84 432.8,16.5 L432.8,16.66 C432.8,27.04 439.56,30.58 451.54,33.48 C462,35.89 464.25,38.07 464.25,42.09 L464.25,42.25 C464.25,46.43 460.39,49.33 454.25,49.33 C448.47401,49.3257515 442.886498,47.2742808 438.48,43.54 C437.049062,42.5232946 435.176624,42.3707261 433.599969,43.1423694 C432.023314,43.9140126 430.995027,45.4862484 430.92,47.24 C430.928973,48.7360188 431.658714,50.1359315 432.88,51 C438.960317,55.6009168 446.37513,58.0935859 454,58.1 C465.83,58.1 474.110194,51.82 474.110194,41.28 L474.110194,41.12 C474.15,31.78 468,27.52 456.13,24.62 L456.19,24.65 Z"
  />
</svg>
