<svg
  width="931"
  height="212"
  viewBox="0 0 931 212"
  fill="none"
  xmlns="http://www.w3.org/2000/svg"
>
  <path
    d="M208.338 0.572266L162.385 6.14843V35.7363H140.447L136.633 71.2363H160.291V158.258C160.291 191.334 177.005 211.529 211.111 211.529C222.61 211.529 234.794 210.819 246.287 210.129L249.41 176.023C245.582 176.358 239.676 176.713 235.828 176.713C217.738 176.713 208.338 167.659 208.338 148.189V71.2363H280.023L335.783 209.105H378.949L445.842 35.7266H396.055L360.508 154.785H359.109L321.041 35.7363H208.338V0.572266ZM31.4648 32.2656C20.3261 32.2656 10.5759 32.925 0.476562 34.3242V68.4453H5.34375C12.6597 68.4453 16.1367 72.619 16.1367 80.9844V209.102H63.8262V108.453C63.8262 87.6098 76.0142 74.0273 94.1191 74.0273C102.814 74.0273 112.913 75.4174 120.568 76.4668L126.146 34.3242C118.486 32.925 110.815 32.2656 103.859 32.2656C82.2714 32.2656 69.7429 44.7639 61.3926 64.6328L59.998 64.2773V59.4062C59.998 43.3702 50.6142 32.2656 31.4648 32.2656Z"
    fill="white"
  />
  <path
    d="M520.445 120L519.131 129.695L525.713 131.979C526.792 132.338 527.277 133.168 527.277 134.377V152.576C522.725 149.213 517.333 146.83 510.387 146.83C497.094 146.83 485 155.921 485 179.992C485 202.869 494.101 211.85 508.229 211.85C516.974 211.85 522.844 208.496 527.871 203.584L528.711 203.703L529.906 210.414H552.184V200.955L546.432 200.111C544.633 199.871 544.518 199.635 544.518 197.836V120H520.445ZM803.891 121.906V209.537H820.926V173.133C820.926 165.482 825.482 160.42 832.523 160.42C839.555 160.42 843.148 165.482 843.148 173.133V209.537H860.174V167.701C860.174 154.988 853.628 146.104 840.93 146.104C831.665 146.104 825.732 150.66 821.18 157.586H820.676V121.906H803.891ZM775.242 135.611L758.951 137.586V148.08H751.176L749.816 160.672H758.207V191.52C758.207 203.243 764.127 210.404 776.23 210.404C780.298 210.404 784.611 210.16 788.693 209.92L789.803 197.816C788.443 197.936 786.344 198.062 784.99 198.062C778.584 198.062 775.242 194.859 775.242 187.938V160.672H790.559V148.08H775.242V135.611ZM572.9 146.857C568.958 146.857 565.505 147.087 561.932 147.592V159.67H563.65C566.244 159.67 567.479 161.161 567.479 164.129V209.537H584.385V173.877C584.385 166.466 588.707 161.654 595.129 161.654C598.207 161.654 601.795 162.155 604.504 162.52L606.477 147.592C603.768 147.087 601.055 146.857 598.576 146.857C590.925 146.857 586.478 151.296 583.52 158.332L583.031 158.201V156.473C583.031 150.796 579.697 146.857 572.9 146.857ZM719.314 146.857C710.065 146.857 704.014 151.41 699.691 158.451H699.195L697.352 148.207H682.416V209.537H699.445V173.877C699.445 166.351 704.014 161.279 710.93 161.279C718.196 161.279 721.408 166.466 721.408 173.502V209.537H738.443V168.439C738.443 155.732 732.032 146.857 719.314 146.857ZM642.41 146.861C624.145 146.861 612.172 162.397 612.172 180.412C612.172 198.567 623.031 210.9 641.301 210.9C653.144 210.9 662.278 206.093 667.465 197.938L653.764 192.635C651.42 196.078 647.722 198.316 642.41 198.316C635.004 198.316 630.191 192.146 630.191 184.355V182.641C643.274 182.026 656.237 181.407 669.324 180.652V178.443C669.324 159.434 661.175 146.861 642.41 146.861ZM903.268 146.861C885.008 146.861 873.035 162.397 873.035 180.412C873.035 198.567 883.888 210.9 902.158 210.9C914.002 210.9 923.136 206.093 928.328 197.938L914.611 192.635C912.283 196.078 908.575 198.316 903.268 198.316C895.862 198.316 891.049 192.146 891.049 184.355V182.641C904.132 182.026 917.094 181.407 930.182 180.652V178.443C930.182 159.434 922.027 146.861 903.268 146.861ZM642.164 159.809C649.19 159.809 652.398 165.106 652.398 172.012L630.191 173.5C630.681 166.099 634.633 159.809 642.164 159.809ZM903.023 159.809C910.065 159.809 913.258 165.106 913.258 172.012L891.049 173.5C891.544 166.099 895.498 159.809 903.023 159.809ZM516.258 160.707C519.726 160.707 523.558 162.272 526.557 164.311V192.57C523.318 195.319 518.886 197.723 514.818 197.723C507.273 197.723 503.92 191.255 503.92 179.637C503.92 168.983 507.393 160.707 516.258 160.707Z"
    fill="white"
  />
</svg>
