<svg
  xmlns="http://www.w3.org/2000/svg"
  width="189"
  height="28"
  viewBox="0 0 189 28"
  fill="#ffffff"
>
  <g fill-rule="evenodd">
    <polygon
      points="50.42 27.512 43.31 27.512 39.105 13.402 35.018 27.512 27.886 27.512 20.765 5.181 27.4 5.181 31.823 18.921 35.445 5.216 42.928 5.216 46.565 18.921 50.841 5.181 57.452 5.181"
    />
    <path
      d="M70.0436 10.0434C68.7116 10.0264 65.7706 10.1314 65.8156 14.2724L74.1176 14.2724C74.0666 10.4104 72.0546 10.0694 70.0436 10.0434L70.0436 10.0434zM75.9426 27.0814C73.7896 27.6764 72.3096 27.7164 70.0606 27.7164 62.8436 27.7164 59.0226 22.4804 59.0226 16.4894 59.0226 11.4894 61.3336 4.8384 69.7306 4.8384 77.9386 4.8384 80.8156 9.8834 79.8246 19.0374L65.7676 19.0374C65.7406 21.1204 68.1976 22.4824 70.4146 22.4824 71.5246 22.4824 72.8476 22.4414 74.2096 22.0094L75.9426 27.0814zM140.2833 10.0807C138.9513 10.0637 136.0103 10.1687 136.0553 14.3097L144.3573 14.3097C144.3063 10.4477 142.2943 10.1067 140.2833 10.0807L140.2833 10.0807zM146.1823 27.1187C144.0293 27.7137 142.5493 27.7537 140.3003 27.7537 133.0833 27.7537 129.2623 22.5177 129.2623 16.5267 129.2623 11.5267 131.5733 4.8757 139.9703 4.8757 148.1783 4.8757 151.0553 9.9207 150.0643 19.0747L136.0073 19.0747C135.9803 21.1577 138.4373 22.5197 140.6543 22.5197 141.7643 22.5197 143.0873 22.4787 144.4493 22.0467L146.1823 27.1187zM95.7483 18.1062L94.6943 18.1062C90.3833 18.1062 88.5033 18.7822 88.5033 20.9382 88.5033 22.5192 89.7293 23.1552 91.1663 23.1552 92.5553 23.1552 94.9343 22.6952 95.7483 21.7852L95.7483 18.1062zM86.4903 5.8872C88.8703 5.3002 91.1243 4.8382 93.6403 4.8382 98.6703 4.8382 102.0003 7.0412 102.0003 11.8312L102.0003 27.4862 96.4763 27.4862C96.4283 27.4862 96.2433 26.4402 96.1583 26.4832 94.7483 27.1892 92.7603 27.7522 90.5573 27.7522 84.4263 27.7522 82.7433 23.7642 82.7433 21.1052 82.7433 16.6512 85.8393 13.3532 94.0243 13.4122L95.7003 13.4122 95.7003 12.6932C95.7003 11.6402 95.8013 10.0632 93.3103 10.0632 91.5943 10.0632 89.8323 10.3572 88.2433 10.7962L86.4903 5.8872z"
    />
    <polygon
      points="121.008 27.469 113.987 16.919 113.987 27.469 107.155 27.469 107.155 .959 113.987 .959 113.987 13.085 119.736 5.153 127.488 5.153 120.321 14.889 128.667 27.469"
    />
    <path
      d="M169.3936 5.6363C169.1206 6.4343 167.5536 10.8183 167.5536 10.8183 165.2556 9.5803 160.9836 10.6953 160.9186 15.6743L160.9186 27.4693 154.3016 27.4693 154.3016 5.1543 159.3936 5.1543 160.1406 6.3303C161.3746 5.4013 163.1076 4.8753 165.3486 4.8753 166.9406 4.8753 168.2676 5.1653 169.3166 5.5793M17.3805 21.5978C16.2365 21.6148 14.6715 21.6468 13.3875 20.6258 12.0655 19.5748 12.1565 17.7628 12.1365 16.0198L12.1365 15.9838C12.1185 14.4458 12.1185 12.7458 12.1165 11.3158L15.5365 11.3158 17.3805 11.3158 17.3805 5.2288 12.0995 5.2288 12.0995.9588 5.8985.9588 5.8985 5.2288.2275 5.2288.2275 11.3158 5.8645 11.3158C5.8655 12.7578 5.8655 14.4938 5.8835 16.0558L5.8835 16.0908C5.9135 18.6838 5.9575 22.6028 8.7265 25.2968 10.4985 27.0198 13.8405 27.7568 17.0845 27.7568 17.1825 27.7568 17.2815 27.7558 17.3805 27.7538L17.3805 21.5978zM187.0475 25.6181C185.8465 26.9231 184.6685 27.7611 180.9925 27.7611 179.3565 27.7611 177.4895 27.4291 176.2165 27.1381 174.9425 26.8471 173.5525 26.4321 172.0475 25.8921L173.9835 20.3451C176.2055 20.9931 175.6695 20.8371 176.6705 21.1351 179.5005 21.9771 181.4465 22.5561 181.9005 21.1881 182.1395 20.4641 181.9385 19.9361 181.6565 19.6591 181.3745 19.3821 180.8815 19.0701 180.1795 18.7221 179.4775 18.3731 174.7805 16.4081 173.6625 15.4681 172.4555 14.4521 171.9565 13.1301 171.9565 11.6101 171.9565 10.5301 172.3595 7.3341 175.2915 5.6471 178.3035 3.9131 184.0595 5.4351 185.1525 5.7051 186.2455 5.9751 187.2845 6.3591 188.2685 6.8561L186.5245 11.7311C186.8355 11.9161 180.1935 9.0191 179.3095 10.7761 178.7775 11.8351 179.2775 12.2611 179.6245 12.5671 179.9725 12.8721 184.0935 14.7061 185.2185 15.2561 190.9565 18.0631 188.2095 24.3561 187.0475 25.6181"
    />
  </g>
</svg>
