<svg xmlns="http://www.w3.org/2000/svg" width="150" height="42" viewBox="0 0 150 42">
  <g fill="#FFF">
    <path d="M126.449817,11.65 C126.421009,6.62075281 129.839797,2.22581929 134.721608,1.01665053 C139.603419,-0.192518228 144.678275,2.09863682 147,6.56 L143,7.86 C141.371544,5.44326011 138.380906,4.33747255 135.571935,5.11347462 C132.762963,5.88947669 130.764085,8.37365998 130.607175,11.2836222 C130.450266,14.1935844 132.170428,16.8783042 134.879669,17.9518569 C137.58891,19.0254097 140.681113,18.2476184 142.56,16.02 L140.18,16.41 L137.29,13.52 L143.51,12.52 L149.74,11.52 L148.74,17.74 L147.74,23.96 L144.77,21 L145.05,19.29 C141.93901,22.4087713 137.255507,23.3461441 133.183833,21.6649366 C129.112158,19.9837291 126.454356,16.0151075 126.449817,11.61 L126.449817,11.65 Z M0.6,14.89 C0.548958165,16.0616342 0.793097937,17.2273157 1.31,18.28 C1.78596148,19.2074603 2.47056969,20.0118749 3.31,20.63 C4.18772602,21.2675739 5.17864699,21.7324923 6.23,22 C7.34531816,22.2994049 8.49519377,22.4507043 9.65,22.45 C10.9378234,22.4741828 12.2220237,22.3056525 13.46,21.95 C14.464944,21.6662474 15.4055412,21.1908553 16.23,20.55 C16.9558831,19.9693759 17.5348408,19.2259805 17.92,18.38 C18.3015643,17.5278074 18.4959346,16.6036961 18.49,15.67 C18.5322734,14.6400733 18.2602302,13.6216552 17.71,12.75 C17.2542243,12.0170966 16.6473963,11.3898139 15.93,10.91 C15.2835167,10.4679794 14.5714631,10.1305132 13.82,9.91 C13.2814941,9.73170381 12.7340898,9.58150143 12.18,9.46 L8.93,8.63 C8.27098948,8.4714722 7.62562349,8.26080869 7,8 C6.6334517,7.85318277 6.31492892,7.60736629 6.08,7.29 C5.90959562,6.98506648 5.82655352,6.63905772 5.84,6.29 C5.8252158,5.8918602 5.92968019,5.49837767 6.14,5.16 C6.33663762,4.86792042 6.58792042,4.61663762 6.88,4.42 C7.18727677,4.22463479 7.52537579,4.0826332 7.88,4 C8.25149042,3.92094904 8.63019261,3.88073287 9.01,3.88 C9.55272377,3.86261778 10.0957606,3.90284273 10.63,4 C11.0946497,4.08682049 11.5389579,4.25979543 11.94,4.51 C12.3230629,4.75505147 12.6310419,5.10109527 12.83,5.51 C13.0769939,5.97009085 13.220345,6.47864583 13.25,7 L17.77,7 C17.8057064,5.91303975 17.5612054,4.83516876 17.06,3.87 C16.6200072,3.01518416 15.9781166,2.28061423 15.19,1.73 C14.3628547,1.1587239 13.4320995,0.754490802 12.45,0.54 C11.4105755,0.277018161 10.3421691,0.145987189 9.27,0.14991056 C8.30352721,0.151684755 7.34163684,0.282851624 6.41,0.54 C5.49287165,0.781776505 4.62604462,1.18471564 3.85,1.73 C3.09816748,2.25757179 2.46747699,2.93939934 2,3.73 C1.52651855,4.59639285 1.29183963,5.57307131 1.32,6.56 C1.29681323,7.42458889 1.48202733,8.28206155 1.86,9.06 C2.2226864,9.7223527 2.72002042,10.3014403 3.32,10.76 C3.93004785,11.2290896 4.60338491,11.609525 5.32,11.89 C6.07913954,12.1735505 6.85370998,12.4139344 7.64,12.61 C8.41,12.83 9.18,13.03 9.93,13.2 C10.6105466,13.3630885 11.2788457,13.5736028 11.93,13.83 C12.4609122,14.0290192 12.9469897,14.3315429 13.36,14.72 C13.7417648,15.0834762 13.9493075,15.5932301 13.93,16.12 C13.9462964,16.6014102 13.7981655,17.0740182 13.51,17.46 C13.2381321,17.7955335 12.8970281,18.0684167 12.51,18.26 C12.0858665,18.4637403 11.6345472,18.6051986 11.17,18.68 C10.7256279,18.7377188 10.2780994,18.7677767 9.83,18.77 C9.21580347,18.7897861 8.60144395,18.7360716 8,18.61 C7.46009502,18.4664555 6.94684927,18.2368455 6.48,17.93 C6.05938909,17.6034764 5.717619,17.1865169 5.48,16.71 C5.20583988,16.1469797 5.07203017,15.5259654 5.09,14.9 L0.6,14.89 Z M52.48,5.89 L55.16,13.69 L49.66,13.69 L52.48,5.89 Z M42.16,21.69 L42.16,0.7 L35.58,0.7 L30.82,15.31 L25.82,0.7 L19.28,0.7 L19.28,21.94 L23.65,21.94 L23.71,7 L28.92,21.91 L32.52,21.91 L37.79,6.85 L37.79,21.94 L46.79,21.94 L48.46,17.21 L56.4,17.21 L58,21.94 L62.85,21.94 L54.89,0.7 L50.1,0.7 L42.16,21.69 Z M61.36,14.9 C61.3120596,16.072487 61.5596473,17.2382124 62.08,18.29 C62.5568701,19.216852 63.2413154,20.0210752 64.08,20.64 C64.9586215,21.2738245 65.9494538,21.735308 67,22 C68.1152954,22.299519 69.2651862,22.4508204 70.42,22.45 C71.7077564,22.4729895 72.9917805,22.3044824 74.23,21.95 C75.234944,21.6662474 76.1755412,21.1908553 77,20.55 C77.7303376,19.971321 78.3129594,19.2276214 78.7,18.38 C79.0796214,17.527527 79.2706432,16.6031181 79.26,15.67 C79.3065305,14.6409808 79.0378976,13.6222693 78.49,12.75 C78.0308442,12.0164522 77.420623,11.3891857 76.7,10.91 C76.0535999,10.4678345 75.3415226,10.1303571 74.59,9.91 C74.0516972,9.7310333 73.5042574,9.58082118 72.95,9.46 L69.71,8.63 C69.046867,8.46175106 68.3981573,8.24105601 67.77,7.97 C67.4037138,7.82272438 67.0853059,7.57699653 66.85,7.26 C66.6795956,6.95506648 66.5965535,6.60905772 66.61,6.26 C66.5952158,5.8618602 66.6996802,5.46837767 66.91,5.13 C67.1058438,4.8372676 67.3572676,4.5858438 67.65,4.39 C67.9570969,4.19429119 68.2952564,4.05226421 68.65,3.97 C69.0214904,3.89094904 69.4001926,3.85073287 69.78,3.85 C70.3104305,3.84537254 70.8399164,3.89564019 71.36,4 C71.8246497,4.08682049 72.2689579,4.25979543 72.67,4.51 C73.0523891,4.75584034 73.3601802,5.101673 73.56,5.51 C73.8121852,5.96921467 73.96227,6.47745626 74,7 L78.52,7 C78.5530783,5.91211816 78.3050961,4.83408454 77.8,3.87 C77.3610201,3.01449644 76.7189339,2.27970263 75.93,1.73 C75.103106,1.15827164 74.1722584,0.753998426 73.19,0.54 C72.1456332,0.289551102 71.0738254,0.171954638 70,0.19 C69.0335272,0.191684755 68.0716368,0.322851624 67.14,0.58 C66.2228717,0.821776505 65.3560446,1.22471564 64.58,1.77 C63.8311789,2.2979593 63.2038357,2.9798541 62.74,3.77 C62.2665186,4.63639285 62.0318396,5.61307131 62.06,6.6 C62.0360241,7.46466228 62.2212782,8.32232042 62.6,9.1 C62.9631731,9.76201579 63.460427,10.34101 64.06,10.8 C64.6708526,11.2678731 65.3440116,11.648208 66.06,11.93 C66.8193771,12.2128545 67.5939082,12.4532262 68.38,12.65 C69.15,12.87 69.92,13.07 70.67,13.24 C71.3506167,13.402835 72.0189335,13.6133548 72.67,13.87 C73.2011493,14.0685374 73.6873172,14.3711174 74.1,14.76 C74.4770048,15.1259698 74.6806105,15.6349841 74.66,16.16 C74.6747098,16.6411934 74.526739,17.1132905 74.24,17.5 C73.9681321,17.8355335 73.6270281,18.1084167 73.24,18.3 C72.8157642,18.503481 72.3644832,18.6449273 71.9,18.72 C71.4556279,18.7777188 71.0080994,18.8077767 70.56,18.81 C69.9605095,18.8096212 69.3631195,18.7391426 68.78,18.6 C68.2399779,18.4567864 67.7266806,18.2271534 67.26,17.92 C66.8403384,17.5925029 66.49876,17.1757772 66.26,16.7 C65.9862164,16.1368497 65.8524269,15.5159289 65.87,14.89 L61.36,14.9 Z M80.04,21.9 L84.71,21.9 L84.71,12.78 L93.31,12.78 L93.31,21.94 L98,21.94 L98,0.7 L93.33,0.7 L93.33,8.85 L84.73,8.85 L84.73,0.7 L80,0.7 L80.04,21.9 Z M100.11,21.9 L104.78,21.9 L104.78,0.7 L100.11,0.7 L100.11,21.9 Z M106.92,21.9 L111.29,21.9 L111.35,7.68 L120.19,21.9 L124.86,21.9 L124.86,0.7 L120.48,0.7 L120.43,15 L111.57,0.7 L106.93,0.7 L106.92,21.9 Z"/>
    <g transform="translate(3 28)">
      <polygon points=".5 1 2.22 1 6.46 11.94 10.68 1 12.4 1 12.4 13.46 11.23 13.46 11.23 2.68 11.23 2.68 7 13.46 5.9 13.46 1.7 2.68 1.7 2.68 1.7 13.46 .5 13.46"/>
      <path d="M21.85 1L23.15 1 28 13.46 26.71 13.46 25.22 9.58 19.64 9.58 18.16 13.46 16.91 13.46 21.85 1zM20 8.57L24.82 8.57 22.45 2.17 20 8.57zM43 13.46L42.16 13.46 42 11.19 42 11.19C41.2333342 12.8177038 39.5565367 13.8182457 37.76 13.72 33.9 13.72 31.98 10.63 31.98 7.22 31.98 3.81 33.9.72 37.76.72 40.2901931.537665301 42.528679 2.34769098 42.88 4.86L41.71 4.86C41.3579396 2.9777235 39.6729181 1.64250397 37.76 1.73 34.52 1.73 33.14 4.49 33.14 7.22 33.14 9.95 34.51 12.71 37.76 12.71 40.47 12.71 42.05 10.77 42 8.13L37.83 8.13 37.83 7.13 43 7.13 43 13.46zM52.25 1L53.55 1 58.36 13.47 57.11 13.47 55.62 9.59 50 9.59 48.52 13.47 47.27 13.47 52.25 1zM50.4 8.58L55.22 8.58 52.85 2.18 50.4 8.58z"/>
      <polygon points="62.31 1 71.13 1 71.13 2 63.06 12.41 71.3 12.41 71.3 13.41 61.76 13.41 61.76 12.41 69.83 2 62.31 2"/>
      <polygon points="76.28 1 77.45 1 77.45 13.46 76.28 13.46"/>
      <polygon points="83.42 1 84.72 1 91.86 11.55 91.86 11.55 91.86 1 93.03 1 93.03 13.46 91.73 13.46 84.59 2.91 84.59 2.91 84.59 13.46 83.42 13.46"/>
      <polygon points="99 1 107.46 1 107.46 2 100.16 2 100.16 6.51 107 6.51 107 7.51 100.17 7.51 100.17 12.44 107.55 12.44 107.55 13.44 99 13.44"/>
    </g>
  </g>
</svg>
